<svg width="64" height="64" viewBox="0 0 64 64" fill="none" xmlns="http://www.w3.org/2000/svg">
<path d="M5.42961 12.6656C9.9178 7.79992 16.7093 5.3335 25.6121 5.3335H28.8111V14.3515L26.2391 14.8665C21.8564 15.743 18.8078 17.4673 17.1763 19.9977C16.325 21.3609 15.8422 22.9217 15.7752 24.5275H25.6121C26.4605 24.5275 27.2742 24.8645 27.8741 25.4644C28.474 26.0644 28.8111 26.878 28.8111 27.7265V50.1194C28.8111 53.6479 25.9416 56.5174 22.4131 56.5174H3.21911C2.37068 56.5174 1.55701 56.1804 0.957078 55.5804C0.357151 54.9805 0.0201147 54.1668 0.0201147 53.3184V37.3234L0.0297118 27.9856C0.000920838 27.6305 -0.606888 19.2171 5.42961 12.6656ZM57.602 56.5174H38.408C37.5596 56.5174 36.7459 56.1804 36.146 55.5804C35.5461 54.9805 35.209 54.1668 35.209 53.3184V37.3234L35.2186 27.9856C35.1899 27.6305 34.582 19.2171 40.6185 12.6656C45.1067 7.79992 51.8982 5.3335 60.801 5.3335H64V14.3515L61.428 14.8665C57.0454 15.743 53.9967 17.4673 52.3653 19.9977C51.514 21.3609 51.0312 22.9217 50.9641 24.5275H60.801C61.6494 24.5275 62.4631 24.8645 63.063 25.4644C63.663 26.0644 64 26.878 64 27.7265V50.1194C64 53.6479 61.1305 56.5174 57.602 56.5174Z" fill="#018ECA"/>
</svg>
