<svg width="201" height="43" viewBox="0 0 201 43" fill="none" xmlns="http://www.w3.org/2000/svg">
<g clip-path="url(#clip0_1225_1014)">
<path d="M13.5183 41.3739V17.2167H9.72119V11.5675H20.6244V41.3739H13.5183Z" fill="#193256"/>
<path d="M35.8671 41.3739H26.6997V0.591826C32.5581 0.376617 36.1925 0.269012 37.7114 0.269012C43.7325 0.269012 48.5061 1.99068 52.032 5.48783C55.5579 8.98497 57.2937 13.612 57.2937 19.3688C57.3479 34.0568 50.1876 41.3739 35.8671 41.3739ZM34.077 6.94049V34.81C35.2704 34.9176 36.518 34.9714 37.9283 34.9714C41.617 34.9714 44.492 33.6264 46.6075 30.9901C48.723 28.3538 49.7537 24.6414 49.7537 19.853C49.7537 11.1371 45.6311 6.77908 37.4401 6.77908C36.6265 6.72528 35.5416 6.77908 34.077 6.94049Z" fill="#193256"/>
<path d="M99.7672 41.3739H92.6611L88.4301 19.3688L80.0764 42.0195H77.4184L69.1732 19.3688L64.7794 41.3739H57.6733L65.9728 0.538025H69.8241L78.7745 28.0848L87.5079 0.538025H91.3593L99.7672 41.3739Z" fill="#193256"/>
<path d="M129.982 2.74391L126.998 8.76976C125.371 7.15569 122.767 6.34866 119.133 6.34866C115.715 6.34866 112.895 7.74752 110.725 10.599C108.555 13.4506 107.416 17.0553 107.416 21.4133C107.416 25.7713 108.447 29.2684 110.454 31.7971C112.461 34.3796 115.173 35.6171 118.59 35.6171C122.442 35.6171 125.479 34.2182 127.703 31.4743L131.121 37.3387C128.137 40.5131 123.798 42.0733 118.048 42.0733C112.298 42.0733 107.85 40.1903 104.65 36.4241C101.449 32.6579 99.876 27.5467 99.876 21.0905C99.876 15.0646 101.666 10.0072 105.192 5.91824C108.718 1.88308 113.22 -0.161407 118.753 -0.161407C123.364 -0.161407 127.161 0.807033 129.982 2.74391Z" fill="#193256"/>
<path d="M21.0584 4.46558C21.0584 6.94049 18.9971 8.98497 16.5019 8.98497C14.0066 8.98497 11.9453 6.99429 11.9453 4.46558C11.9453 1.99068 13.9524 -0.0538025 16.5019 -0.0538025C19.0514 -2.68221e-07 21.0584 1.99068 21.0584 4.46558Z" fill="#193256"/>
<path opacity="0.6" d="M10.8603 8.93117C9.82962 8.93117 8.85322 8.55455 8.03955 7.96273C9.12444 7.15569 9.82962 5.81064 9.82962 4.35798C9.82962 2.90532 9.12444 1.61407 8.0938 0.807033C8.85322 0.215208 9.77538 -0.107605 10.806 -0.107605C11.8909 -0.107605 12.9216 0.269011 13.681 0.914637C12.6503 1.72167 11.9452 3.01292 11.9452 4.46558C11.9452 5.86444 12.5961 7.10189 13.6267 7.96273C12.8673 8.55455 11.8909 8.93117 10.8603 8.93117Z" fill="#193256"/>
<path d="M13.6811 7.96273C12.6504 7.1557 11.9995 5.86445 11.9995 4.46559C11.9995     3.01293 12.6504 1.77548 13.7353 0.914642C14.766 1.72168 15.4169 3.01293 15.4169 4.41179C15.4169 5.86445 14.7117 7.1557 13.6811 7.96273Z" fill="#193256"/>
<path opacity="0.4" d="M5.32755 8.87737C2.83229 8.87737 0.770996 6.83288 0.770996 4.35798C0.770996 1.88308 2.77805 -0.161407 5.32755 -0.161407C6.41244 -0.161407 7.3346 0.215208 8.14827 0.807033C7.06337 1.61407 6.35819 2.95912 6.35819 4.41178C6.35819 5.86444 7.06337 7.10189 8.09402 7.96273C7.28035 8.55455 6.35819 8.87737 5.32755 8.87737Z" fill="#193256"/>
<path opacity="0.8" d="M8.03954 7.96273C7.00889 7.1557 6.30371 5.86445 6.30371 4.41179C6.30371 2.95913 7.00889 1.66787 8.09378 0.807037C9.12443 1.61407 9.82961 2.90532 9.82961 4.35798C9.82961 5.86445 9.12443 7.1557 8.03954 7.96273Z" fill="#193256"/>
<path d="M141.753 2.63632H140.722V1.61407H141.753V2.63632ZM140.722 3.76616H141.644V8.76977H140.722V3.76616Z" fill="#193256"/>
<path d="M143.38 3.76617H144.303V4.57321C144.574 3.98138 145.279 3.65857 145.984 3.65857C147.286 3.65857 147.883 4.4656 147.883 5.81066V8.82358H146.961V6.24108C146.961 5.05743 146.689 4.5194 145.876 4.4656C144.791 4.4656 144.357 5.32644 144.357 6.56389V8.87738H143.435V3.76617H143.38Z" fill="#193256"/>
<path d="M152.168 4.5194H150.812V7.26331C150.812 7.85514 151.192 8.17795 151.571 8.17795C151.842 8.17795 152.059 8.07034 152.222 8.01654V8.82358C152.005 8.87738 151.734 8.98498 151.409 8.98498C150.432 8.98498 149.835 8.55456 149.835 7.53232V4.5194H148.696V3.76617H149.835V2.63632L150.758 2.36731V3.76617H152.114V4.5194H152.168Z" fill="#193256"/>
<path d="M157.212 8.60837C156.833 8.71598 156.453 8.93119 155.639 8.93119C153.849 8.93119 153.036 7.85514 153.036 6.18727C153.036 4.68081 153.958 3.65857 155.422 3.65857C157.104 3.65857 157.646 4.89602 157.646 6.51009H154.012C154.012 7.53233 154.771 8.17796 155.694 8.17796C156.29 8.17796 157.05 7.85514 157.267 7.69374V8.60837H157.212ZM156.616 5.81066C156.616 5.05743 156.182 4.4118 155.368 4.4118C154.446 4.4118 154.066 5.16503 154.012 5.81066H156.616Z" fill="#193256"/>
<path d="M158.84 3.76617H159.708V4.5194C159.979 3.98138 160.467 3.60477 161.01 3.60477C161.281 3.60477 161.444 3.65857 161.606 3.65857V4.4656C161.444 4.4118 161.227 4.358 161.064 4.358C160.25 4.358 159.708 5.16503 159.708 6.40248V8.71598H158.786V3.76617H158.84Z" fill="#193256"/>
<path d="M162.746 3.76617H163.668V4.57321C163.939 3.98138 164.644 3.65857 165.349 3.65857C166.651 3.65857 167.248 4.4656 167.248 5.81066V8.82358H166.326V6.24108C166.326 5.05743 166.055 4.5194 165.241 4.4656C164.156 4.4656 163.722 5.32644 163.722 6.56389V8.87738H162.8V3.76617H162.746Z" fill="#193256"/>
<path d="M169.038 4.14279C169.526 3.87378 170.069 3.65857 170.72 3.65857C172.184 3.65857 172.781 4.358 172.781 5.75686V7.85514C172.781 8.44697 172.781 8.71598 172.835 8.82358H171.913V8.17796C171.696 8.50077 171.208 8.93119 170.34 8.93119C169.255 8.93119 168.496 8.44697 168.496 7.37092C168.496 6.13347 169.906 5.70305 170.828 5.70305C171.208 5.70305 171.479 5.70305 171.805 5.70305C171.805 4.84222 171.479 4.4118 170.557 4.4118C170.014 4.4118 169.472 4.62701 169.092 4.94982L169.038 4.14279ZM171.805 6.40248C171.588 6.40248 171.425 6.40248 171.208 6.40248C170.72 6.40248 169.472 6.45628 169.472 7.37092C169.472 7.90894 170.014 8.17796 170.394 8.17796C171.316 8.17796 171.805 7.58613 171.805 6.8329V6.40248Z" fill="#193256"/>
<path d="M175.385 1.39886H174.462V8.82357H175.385V1.39886Z" fill="#193256"/>
<path d="M144.194 18.777C143.922 19.1536 143.326 19.584 142.458 19.584C140.939 19.584 140.288 18.239 140.288 16.8401C140.288 15.495 140.993 14.3114 142.458 14.3114C143.326 14.3114 143.868 14.6342 144.139 15.1184V12.0517H145.062V19.4764H144.139V18.777H144.194ZM142.675 18.8846C143.705 18.8846 144.194 17.8623 144.194 17.0015C144.194 16.0869 143.705 15.1184 142.675 15.1184C141.644 15.1184 141.264 16.0869 141.264 17.0015C141.264 17.7547 141.698 18.8846 142.675 18.8846Z" fill="#193256"/>
<path d="M147.774 13.343H146.743V12.3207H147.774V13.343ZM146.743 14.4728H147.665V19.4764H146.743V14.4728Z" fill="#193256"/>
<path d="M148.967 18.508C149.347 18.7232 149.835 18.8846 150.107 18.8846C150.54 18.8846 151.083 18.7232 151.083 18.1852C151.083 17.2705 148.859 17.3243 148.859 15.9255C148.859 14.9032 149.618 14.3652 150.649 14.3652C151.083 14.3652 151.463 14.4728 151.788 14.5804L151.734 15.3874C151.517 15.2798 150.974 15.1184 150.757 15.1184C150.269 15.1184 149.835 15.3336 149.835 15.7103C149.835 16.7325 152.059 16.4635 152.059 18.0238C152.059 19.0998 151.191 19.584 150.269 19.584C149.781 19.584 149.293 19.5302 148.859 19.315L148.967 18.508Z" fill="#193256"/>
<path d="M153.198 14.4728H154.12V15.1722C154.392 14.7956 154.934 14.3652 155.856 14.3652C157.321 14.3652 158.026 15.5489 158.026 16.8939C158.026 18.2928 157.375 19.6378 155.856 19.6378C154.934 19.6378 154.446 19.315 154.175 18.8308V21.5747H153.252V14.4728H153.198ZM155.639 15.1184C154.609 15.1184 154.12 16.0869 154.12 17.0015C154.12 17.8623 154.554 18.8846 155.639 18.8846C156.67 18.8846 157.05 17.7547 157.05 17.0015C157.05 16.0869 156.616 15.1184 155.639 15.1184Z" fill="#193256"/>
<path d="M160.25 12.1055H159.328V19.5302H160.25V12.1055Z" fill="#193256"/>
<path d="M162.149 14.8494C162.637 14.5804 163.179 14.3652 163.83 14.3652C165.295 14.3652 165.892 15.0646 165.892 16.4635V18.5618C165.892 19.1536 165.892 19.4226 165.946 19.5302H165.078V18.8308C164.861 19.1536 164.373 19.584 163.505 19.584C162.42 19.584 161.661 19.0998 161.661 18.0238C161.661 16.7863 163.071 16.3559 163.993 16.3559C164.373 16.3559 164.644 16.3559 164.97 16.3559C164.97 15.495 164.644 15.0646 163.722 15.0646C163.179 15.0646 162.637 15.2798 162.257 15.6027L162.149 14.8494ZM164.915 17.1091C164.698 17.1091 164.536 17.1091 164.319 17.1091C163.83 17.1091 162.583 17.1629 162.583 18.0776C162.583 18.6156 163.125 18.8846 163.505 18.8846C164.427 18.8846 164.915 18.2928 164.915 17.5395V17.1091Z" fill="#193256"/>
<path d="M170.611 15.3336C170.231 15.1722 169.906 15.1184 169.58 15.1184C168.55 15.1184 167.953 16.0331 167.953 17.0015C167.953 17.9161 168.441 18.8846 169.635 18.8846C169.96 18.8846 170.34 18.777 170.611 18.6156L170.665 19.4226C170.286 19.584 169.852 19.6378 169.472 19.6378C167.953 19.6378 166.868 18.4542 166.868 17.0015C166.868 15.4951 167.899 14.3652 169.472 14.3652C169.852 14.3652 170.34 14.4728 170.611 14.5804V15.3336Z" fill="#193256"/>
<path d="M175.656 19.315C175.276 19.4226 174.896 19.6378 174.029 19.6378C172.238 19.6378 171.425 18.5618 171.425 16.8939C171.425 15.3874 172.347 14.3652 173.812 14.3652C175.493 14.3652 176.036 15.6027 176.036 17.2167H172.401C172.401 18.239 173.161 18.8846 174.083 18.8846C174.679 18.8846 175.439 18.5618 175.656 18.4004V19.315ZM175.059 16.5173C175.059 15.7641 174.625 15.1184 173.812 15.1184C172.889 15.1184 172.51 15.8717 172.455 16.5173H175.059Z" fill="#193256"/>
<path d="M177.229 14.4728H178.097V15.226C178.477 14.6342 178.965 14.3652 179.724 14.3652C180.321 14.3652 180.918 14.688 181.189 15.3336C181.514 14.6342 182.328 14.3652 182.762 14.3652C184.064 14.3652 184.498 15.1722 184.498 16.3021V19.5302H183.576V16.5173C183.576 15.8717 183.413 15.1184 182.653 15.1184C181.677 15.1184 181.297 16.0331 181.297 17.0015V19.5302H180.375V16.5173C180.375 15.8717 180.212 15.1184 179.453 15.1184C178.477 15.1184 178.097 16.0331 178.097 17.0015V19.5302H177.175V14.4728H177.229Z" fill="#193256"/>
<path d="M189.922 19.315C189.542 19.4226 189.163 19.6378 188.295 19.6378C186.505 19.6378 185.691 18.5618 185.691 16.8939C185.691 15.3874 186.613 14.3652 188.078 14.3652C189.759 14.3652 190.302 15.6027 190.302 17.2167H186.667C186.667 18.239 187.427 18.8846 188.349 18.8846C188.946 18.8846 189.705 18.5618 189.922 18.4004V19.315ZM189.325 16.5173C189.325 15.7641 188.891 15.1184 188.078 15.1184C187.156 15.1184 186.776 15.8717 186.722 16.5173H189.325Z" fill="#193256"/>
<path d="M191.549 14.4728H192.471V15.2798C192.743 14.688 193.448 14.3652 194.153 14.3652C195.455 14.3652 196.052 15.1722 196.052 16.5173V19.5302H195.129V16.9477C195.129 15.7641 194.858 15.226 194.045 15.1722C192.96 15.1722 192.526 16.0331 192.526 17.2167V19.5302H191.604V14.4728H191.549Z" fill="#193256"/>
<path d="M200.229 15.226H198.872V17.9699C198.872 18.5618 199.252 18.8846 199.632 18.8846C199.903 18.8846 200.12 18.777 200.283 18.7232V19.5302C200.066 19.584 199.795 19.6916 199.469 19.6916C198.493 19.6916 197.896 19.2612 197.896 18.239V15.2798H196.757V14.5266H197.896V13.343L198.818 13.0739V14.5266H200.174V15.226H200.229Z" fill="#193256"/>
<path d="M140.614 25.5023H141.482V26.2555C141.861 25.6637 142.35 25.3947 143.109 25.3947C143.706 25.3947 144.302 25.7175 144.574 26.3631C144.899 25.6637 145.713 25.3947 146.147 25.3947C147.449 25.3947 147.883 26.2017 147.883 27.3315V30.5597H146.96V27.5467C146.96 26.9011 146.798 26.1479 146.038 26.1479C145.062 26.1479 144.682 27.0625 144.682 28.031V30.5597H143.76V27.5467C143.76 26.9011 143.597 26.1479 142.838 26.1479C141.861 26.1479 141.482 27.0625 141.482 28.031V30.5597H140.56V25.5023H140.614Z" fill="#193256"/>
<path d="M151.734 25.3947C153.252 25.3947 154.337 26.5245 154.337 28.031C154.337 29.4836 153.307 30.6673 151.734 30.6673C150.215 30.6673 149.13 29.4836 149.13 28.031C149.13 26.4707 150.161 25.3947 151.734 25.3947ZM151.734 29.914C152.819 29.914 153.307 28.9456 153.307 28.031C153.307 27.0625 152.71 26.1479 151.734 26.1479C150.703 26.1479 150.161 27.0625 150.161 28.031C150.106 28.8918 150.594 29.914 151.734 29.914Z" fill="#193256"/>
<path d="M155.531 25.5023H156.453V26.3093C156.724 25.7175 157.429 25.3947 158.135 25.3947C159.436 25.3947 160.033 26.2017 160.033 27.5467V30.5597H159.111V27.9772C159.111 26.7935 158.84 26.2555 158.026 26.2017C156.941 26.2017 156.507 27.0625 156.507 28.3V30.6135H155.585V25.5023H155.531Z" fill="#193256"/>
<path d="M162.745 24.3724H161.715V23.3502H162.745V24.3724ZM161.715 25.5022H162.637V30.5059H161.715V25.5022Z" fill="#193256"/>
<path d="M167.085 26.2555H165.729V28.9994C165.729 29.5912 166.109 29.914 166.488 29.914C166.759 29.914 166.976 29.8064 167.139 29.7526V30.5597C166.922 30.6135 166.651 30.7211 166.326 30.7211C165.349 30.7211 164.752 30.2906 164.752 29.2684V26.3093H163.613V25.5561H164.752V24.3724L165.675 24.1034V25.5561H167.031V26.2555H167.085Z" fill="#193256"/>
<path d="M170.503 25.3947C172.022 25.3947 173.052 26.5245 173.052 28.031C173.052 29.4836 172.022 30.6673 170.503 30.6673C168.984 30.6673 167.899 29.4836 167.899 28.031C167.899 26.4707 168.93 25.3947 170.503 25.3947ZM170.503 29.914C171.588 29.914 172.076 28.9456 172.076 28.031C172.076 27.0625 171.479 26.1479 170.503 26.1479C169.472 26.1479 168.93 27.0625 168.93 28.031C168.93 28.8918 169.418 29.914 170.503 29.914Z" fill="#193256"/>
<path d="M174.299 25.5023H175.167V26.2555C175.439 25.7175 175.981 25.3409 176.469 25.3409C176.74 25.3409 176.903 25.3947 177.066 25.3947V26.2017C176.903 26.1479 176.686 26.0941 176.523 26.0941C175.71 26.0941 175.113 26.9011 175.113 28.1386V30.4521H174.191V25.5023H174.299Z" fill="#193256"/>
<path d="M179.29 24.3724H178.259V23.3502H179.29V24.3724ZM178.314 25.5022H179.236V30.5059H178.314V25.5022Z" fill="#193256"/>
<path d="M180.972 25.5023H181.894V26.3093C182.165 25.7175 182.87 25.3947 183.575 25.3947C184.877 25.3947 185.474 26.2017 185.474 27.5467V30.5597H184.552V27.9772C184.552 26.7935 184.281 26.2555 183.467 26.2017C182.382 26.2017 181.948 27.0625 181.948 28.3V30.6135H181.026V25.5023H180.972Z" fill="#193256"/>
<path d="M191.495 30.2907C191.495 31.7971 190.682 32.7118 188.891 32.7118C188.349 32.7118 187.861 32.658 187.047 32.3889L187.156 31.5281C187.861 31.8509 188.295 31.9585 189 31.9585C189.976 31.9585 190.573 31.3129 190.573 30.2369V29.7526C190.193 30.2907 189.542 30.5059 188.891 30.5059C187.427 30.5059 186.722 29.3222 186.722 28.031C186.722 26.7397 187.481 25.3409 189 25.3409C189.922 25.3409 190.41 25.6637 190.682 26.2017V25.4485H191.549V30.2907H191.495ZM190.573 28.0848C190.573 27.0625 190.085 26.1479 189.108 26.1479C188.186 26.1479 187.698 27.1701 187.698 28.031C187.698 28.9994 188.241 29.8064 189.108 29.8064C189.976 29.7526 190.573 28.9994 190.573 28.0848Z" fill="#193256"/>
<path d="M143.868 36.9621C143.489 36.8007 143.163 36.7469 142.838 36.7469C141.807 36.7469 141.21 37.6616 141.21 38.63C141.21 39.5446 141.699 40.5131 142.892 40.5131C143.217 40.5131 143.597 40.4055 143.868 40.2441L143.923 41.0511C143.543 41.2125 143.109 41.2663 142.729 41.2663C141.21 41.2663 140.125 40.0827 140.125 38.63C140.125 37.1235 141.156 35.9937 142.729 35.9937C143.109 35.9937 143.597 36.1013 143.868 36.2089V36.9621Z" fill="#193256"/>
<path d="M148.913 40.8897C148.533 40.9973 148.154 41.2125 147.34 41.2125C145.55 41.2125 144.736 40.1365 144.736 38.4686C144.736 36.9621 145.658 35.9399 147.123 35.9399C148.805 35.9399 149.347 37.1773 149.347 38.7914H145.713C145.713 39.8136 146.472 40.4593 147.394 40.4593C147.991 40.4593 148.75 40.1365 148.967 39.975V40.8897H148.913ZM148.316 38.1458C148.316 37.3925 147.883 36.7469 147.069 36.7469C146.147 36.7469 145.767 37.5001 145.713 38.1458H148.316Z" fill="#193256"/>
<path d="M150.541 36.1013H151.463V36.9083C151.734 36.3165 152.439 35.9937 153.144 35.9937C154.446 35.9937 155.043 36.8007 155.043 38.1458V41.1587H154.121V38.5762C154.121 37.3925 153.849 36.8545 153.036 36.8007C151.951 36.8007 151.517 37.6615 151.517 38.8452V41.1587H150.595V36.1013H150.541Z" fill="#193256"/>
<path d="M159.328 36.8545H157.972V39.5985C157.972 40.1903 158.352 40.5131 158.731 40.5131C159.003 40.5131 159.22 40.4055 159.382 40.3517V41.1587C159.165 41.2125 158.894 41.3201 158.569 41.3201C157.592 41.3201 156.996 40.8897 156.996 39.8675V36.9083H155.856V36.1551H156.996V34.9715L157.918 34.7025V36.1551H159.274V36.8545H159.328Z" fill="#193256"/>
<path d="M160.521 36.1013H161.389V36.8545C161.661 36.3165 162.149 35.9399 162.691 35.9399C162.962 35.9399 163.125 35.9937 163.288 35.9937V36.8007C163.125 36.7469 162.908 36.6931 162.746 36.6931C161.932 36.6931 161.389 37.5001 161.389 38.7376V41.0511H160.521V36.1013Z" fill="#193256"/>
<path d="M168.278 40.8897C167.899 40.9973 167.519 41.2125 166.651 41.2125C164.861 41.2125 164.047 40.1365 164.047 38.4686C164.047 36.9621 164.97 35.9399 166.434 35.9399C168.116 35.9399 168.658 37.1773 168.658 38.7914H165.024C165.024 39.8136 165.783 40.4593 166.705 40.4593C167.302 40.4593 168.061 40.1365 168.278 39.975V40.8897ZM167.682 38.1458C167.682 37.3925 167.248 36.7469 166.434 36.7469C165.512 36.7469 165.132 37.5001 165.078 38.1458H167.682Z" fill="#193256"/>
</g>
<defs>
<clipPath id="clip0_1225_1014">
<rect width="200" height="42.3423" fill="white" transform="translate(0.5)"/>
</clipPath>
</defs>
</svg>
