<svg width="6" height="11" viewBox="0 0 6 11" fill="none" xmlns="http://www.w3.org/2000/svg">
<path fill-rule="evenodd" clip-rule="evenodd" d="M0.802695 10.1321C0.999049 10.3271 1.31661 10.3271 1.51248 10.1321L5.66403 6.00021C5.75696 5.90913 5.83096 5.7997 5.88152 5.6782C5.93209 5.55671 5.95815 5.42567 5.95815 5.29346C5.95815 5.16125 5.93209 5.03045 5.88152 4.90896C5.83096 4.78746 5.75696 4.67803 5.66403 4.58695L1.48242 0.424566C1.38752 0.331544 1.26184 0.279261 1.13091 0.278333C0.999986 0.277404 0.873618 0.328016 0.777483 0.419683C0.72986 0.464951 0.691759 0.519737 0.665532 0.580808C0.639305 0.641878 0.625514 0.707856 0.625014 0.774645C0.624514 0.841435 0.637315 0.907491 0.662625 0.968971C0.687934 1.03045 0.725209 1.08603 0.772149 1.13205L4.59935 4.94045C4.64585 4.98599 4.68288 5.0408 4.70818 5.10157C4.73349 5.16234 4.74655 5.22757 4.74655 5.2937C4.74655 5.35984 4.73349 5.42531 4.70818 5.48607C4.68288 5.54684 4.64585 5.60166 4.59935 5.6472L0.802695 9.42557C0.756205 9.47107 0.719187 9.52597 0.693888 9.5867C0.668589 9.64742 0.655538 9.71273 0.655538 9.77882C0.655538 9.84492 0.668589 9.91022 0.693888 9.97095C0.719187 10.0317 0.756205 10.0866 0.802695 10.1321Z" fill="#018ECA"/>
</svg>
