<svg width="9" height="15" viewBox="0 0 9 15" fill="none" xmlns="http://www.w3.org/2000/svg">
<path fill-rule="evenodd" clip-rule="evenodd" d="M7.84302 0.48306C7.56813 0.210074 7.12354 0.210074 6.84932 0.48306L1.03716 6.26768C0.907057 6.39518 0.803455 6.5484 0.732665 6.71848C0.661876 6.88857 0.625388 7.07204 0.625388 7.25713C0.625388 7.44222 0.661876 7.62534 0.732665 7.79543C0.803455 7.96552 0.907057 8.11873 1.03716 8.24624L6.89141 14.0736C7.02427 14.2038 7.20022 14.277 7.38352 14.2783C7.56682 14.2796 7.74373 14.2087 7.87832 14.0804C7.94499 14.017 7.99833 13.9403 8.03505 13.8548C8.07177 13.7693 8.09108 13.677 8.09178 13.5835C8.09248 13.49 8.07456 13.3975 8.03912 13.3114C8.00369 13.2253 7.9515 13.1475 7.88579 13.0831L2.52771 7.75134C2.46261 7.68758 2.41077 7.61084 2.37534 7.52577C2.33991 7.44069 2.32163 7.34938 2.32163 7.25679C2.32163 7.1642 2.33991 7.07254 2.37534 6.98746C2.41077 6.90239 2.46261 6.82565 2.52771 6.76189L7.84302 1.47217C7.90811 1.40847 7.95993 1.33161 7.99535 1.24659C8.03077 1.16158 8.04904 1.07015 8.04904 0.977614C8.04904 0.885081 8.03077 0.793653 7.99535 0.708634C7.95993 0.623615 7.90811 0.546757 7.84302 0.48306Z" fill="#018ECA"/>
</svg>
