<svg width="14" height="14" viewBox="0 0 13 13" fill="none" xmlns="http://www.w3.org/2000/svg">
<path d="M3.2953 4.38513H0.601074V12.6672H3.2953V4.38513Z" fill="white"/>
<path d="M10.6314 4.48217C10.6031 4.473 10.5756 4.46307 10.5458 4.45543C10.516 4.44778 10.4732 4.44014 10.4365 4.43403C10.2774 4.4015 10.1153 4.38512 9.95284 4.38513C9.38138 4.41034 8.8233 4.56614 8.32142 4.84059C7.81955 5.11504 7.38723 5.50083 7.05765 5.96836V4.38513H4.36572V12.6672H7.05995V8.14987C7.05995 8.14987 9.09628 5.31428 9.95513 7.39722V12.6695H12.6486V7.08012C12.6479 6.48474 12.4493 5.9065 12.0842 5.43624C11.719 4.96598 11.208 4.63038 10.6314 4.48217Z" fill="white"/>
<path d="M1.78762 2.86993C2.48393 2.86993 3.04839 2.30546 3.04839 1.60916C3.04839 0.912854 2.48393 0.348389 1.78762 0.348389C1.09132 0.348389 0.526855 0.912854 0.526855 1.60916C0.526855 2.30546 1.09132 2.86993 1.78762 2.86993Z" fill="white"/>
</svg>
