<svg width="19" height="21" viewBox="0 0 19 21" fill="none" xmlns="http://www.w3.org/2000/svg">
<g clip-path="url(#clip0_502_25026)">
<path d="M12.059 7.80648C14.2242 10.088 14.1945 13.7459 12.072 15.9924C12.0681 15.997 12.0634 16.002 12.059 16.0065L9.62368 18.57C7.47575 20.831 3.9812 20.8307 1.8336 18.57C-0.314326 16.3094 -0.314326 12.6305 1.8336 10.37L3.1783 8.95449C3.53488 8.57914 4.149 8.82859 4.16741 9.35906C4.1909 10.0351 4.30605 10.7143 4.51858 11.3702C4.59053 11.5923 4.53913 11.838 4.38149 12.0039L3.90724 12.5031C2.89159 13.5722 2.85971 15.313 3.86538 16.3926C4.88095 17.4828 6.55024 17.4893 7.57361 16.412L10.0089 13.8489C11.0305 12.7736 11.0263 11.0353 10.0089 9.96445C9.87479 9.82355 9.73968 9.71406 9.63414 9.63757C9.48277 9.52816 9.3894 9.34984 9.38239 9.15668C9.36803 8.75359 9.50374 8.3382 9.80633 8.01968L10.5693 7.21652C10.7694 7.0059 11.0833 6.98004 11.3153 7.1505C11.5809 7.34578 11.8298 7.56527 12.059 7.80648Z" fill="white"/>
<path d="M17.1659 2.43001C15.0183 0.169341 11.5238 0.169029 9.37587 2.43001L6.94057 4.99348C6.93622 4.99805 6.93151 5.00301 6.9275 5.00758C4.80511 7.25415 4.77535 10.912 6.94057 13.1935C7.16972 13.4347 7.41853 13.6542 7.68424 13.8495C7.91625 14.0199 8.23015 13.994 8.43021 13.7835L9.19322 12.9803C9.49581 12.6618 9.63152 12.2464 9.61715 11.8433C9.61014 11.6502 9.51677 11.4719 9.3654 11.3625C9.25986 11.286 9.12479 11.1765 8.99064 11.0356C7.97328 9.96469 7.96902 8.22649 8.99064 7.1511L11.4259 4.58801C12.4493 3.51079 14.1186 3.51727 15.1342 4.60747C16.1398 5.68704 16.108 7.42782 15.0923 8.49692L14.618 8.99614C14.4604 9.16208 14.409 9.40774 14.481 9.62985C14.6935 10.2857 14.8086 10.965 14.8321 11.641C14.8506 12.1715 15.4647 12.4209 15.8212 12.0456L17.1659 10.6301C19.3138 8.36946 19.3138 4.69059 17.1659 2.43001Z" fill="white"/>
</g>
<defs>
<clipPath id="clip0_502_25026">
<rect width="19" height="20" fill="white" transform="translate(0 0.5)"/>
</clipPath>
</defs>
</svg>
