<svg width="17" height="17" viewBox="0 0 17 17" fill="none" xmlns="http://www.w3.org/2000/svg">
<path d="M8.82632 11.1112C8.60192 11.2948 8.32992 11.3084 8.10552 11.1112C5.47392 8.77201 2.83552 6.42601 0.203922 4.08681C0.190322 4.10721 0.183522 4.13441 0.169922 4.15481V14.7628H16.8299V4.46081C14.1643 6.67761 11.4987 8.89441 8.82632 11.1112Z" fill="white"/>
<path d="M7.66338 9.3568C7.93538 9.6016 8.20738 9.8396 8.47938 10.0844C11.0362 7.956 13.593 5.8344 16.1498 3.706C16.1158 3.6856 16.0818 3.672 16.0478 3.6584H1.25098C2.51578 4.7804 3.78738 5.9092 5.05218 7.038C5.92258 7.8064 6.79298 8.5816 7.66338 9.3568Z" fill="white"/>
</svg>
