<svg width="17" height="14" viewBox="0 0 16 13" fill="none" xmlns="http://www.w3.org/2000/svg">
<path d="M15.7177 1.84012C15.1566 2.08482 14.5631 2.24746 13.9557 2.32303C14.5954 1.94354 15.0738 1.34277 15.3005 0.634362C14.701 0.989925 14.0451 1.24034 13.3612 1.37478C12.9425 0.926272 12.3986 0.614153 11.8001 0.479032C11.2016 0.343911 10.5763 0.392043 10.0055 0.617165C9.43475 0.842287 8.94496 1.23398 8.59986 1.74127C8.25475 2.24857 8.07032 2.84799 8.07055 3.46154C8.06819 3.696 8.09203 3.92999 8.14161 4.15917C6.92502 4.0999 5.73463 3.78458 4.64824 3.23381C3.56184 2.68304 2.60389 1.90922 1.837 0.962927C1.44261 1.63562 1.32026 2.43362 1.49498 3.19357C1.6697 3.95353 2.12827 4.61797 2.77685 5.05088C2.29281 5.03786 1.819 4.90866 1.39535 4.67417V4.70779C1.39618 5.41405 1.6403 6.09845 2.08662 6.6458C2.53293 7.19316 3.15419 7.57004 3.84582 7.71301C3.58428 7.78195 3.31475 7.81586 3.04428 7.81387C2.84991 7.81742 2.65573 7.8 2.46509 7.76191C2.66281 8.36883 3.04377 8.89956 3.55553 9.28106C4.0673 9.66256 4.68472 9.87608 5.32283 9.89223C4.24016 10.7388 2.90496 11.198 1.53059 11.1966C1.28594 11.1982 1.04144 11.1841 0.798584 11.1545C2.19693 12.0568 3.82677 12.5345 5.49094 12.5299C6.6362 12.5379 7.77163 12.3183 8.8313 11.8838C9.89096 11.4493 10.8537 10.8086 11.6637 9.99885C12.4736 9.18912 13.1146 8.22652 13.5494 7.16697C13.9842 6.10742 14.2041 4.97204 14.1964 3.82678C14.1964 3.69154 14.1918 3.56087 14.1849 3.43174C14.7884 2.99891 15.3079 2.45953 15.7177 1.84012Z" fill="white"/>
</svg>
